# Blender v2.79 (sub 0) OBJ File: 'tree.blend'
# www.blender.org
mtllib tree.mtl
o Cylinder_Cylinder.001
v 0.031631 0.062180 -0.241638
v 0.031631 1.479517 -0.241638
v 0.169886 0.062180 -0.228021
v 0.169886 1.479517 -0.228021
v 0.302827 0.062180 -0.187694
v 0.302827 1.479517 -0.187694
v 0.425346 0.062180 -0.122206
v 0.425346 1.479517 -0.122206
v 0.532736 0.062180 -0.034074
v 0.532736 1.479517 -0.034074
v 0.620868 0.062180 0.073316
v 0.620868 1.479517 0.073316
v 0.686356 0.062180 0.195835
v 0.686356 1.479517 0.195835
v 0.726683 0.062180 0.328776
v 0.726683 1.479517 0.328776
v 0.740300 0.062180 0.467030
v 0.740300 1.479517 0.467030
v 0.726683 0.062180 0.605285
v 0.726683 1.479517 0.605285
v 0.686356 0.062180 0.738226
v 0.686356 1.479517 0.738226
v 0.620868 0.062180 0.860745
v 0.620868 1.479517 0.860745
v 0.532736 0.062180 0.968135
v 0.532736 1.479517 0.968135
v 0.425346 0.062180 1.056267
v 0.425346 1.479517 1.056267
v 0.302827 0.062180 1.121755
v 0.302827 1.479517 1.121755
v 0.169886 0.062180 1.162082
v 0.169886 1.479517 1.162082
v 0.031631 0.062180 1.175699
v 0.031631 1.479517 1.175699
v -0.106623 0.062180 1.162082
v -0.106623 1.479517 1.162082
v -0.239564 0.062180 1.121755
v -0.239564 1.479517 1.121755
v -0.362084 0.062180 1.056266
v -0.362084 1.479517 1.056266
v -0.469473 0.062180 0.968134
v -0.469473 1.479517 0.968134
v -0.557605 0.062180 0.860745
v -0.557605 1.479517 0.860745
v -0.623093 0.062180 0.738226
v -0.623093 1.479517 0.738226
v -0.663420 0.062180 0.605284
v -0.663420 1.479517 0.605284
v -0.677037 0.062180 0.467030
v -0.677037 1.479517 0.467030
v -0.663420 0.062180 0.328775
v -0.663420 1.479517 0.328775
v -0.623092 0.062180 0.195834
v -0.623092 1.479517 0.195834
v -0.557604 0.062180 0.073315
v -0.557604 1.479517 0.073315
v -0.469472 0.062180 -0.034074
v -0.469472 1.479517 -0.034074
v -0.362083 0.062180 -0.122206
v -0.362083 1.479517 -0.122206
v -0.239563 0.062180 -0.187694
v -0.239563 1.479517 -0.187694
v -0.106622 0.062180 -0.228021
v -0.106622 1.479517 -0.228021
vn 0.0980 0.0000 -0.9952
vn 0.2903 0.0000 -0.9569
vn 0.4714 0.0000 -0.8819
vn 0.6344 0.0000 -0.7730
vn 0.7730 0.0000 -0.6344
vn 0.8819 0.0000 -0.4714
vn 0.9569 0.0000 -0.2903
vn 0.9952 0.0000 -0.0980
vn 0.9952 0.0000 0.0980
vn 0.9569 0.0000 0.2903
vn 0.8819 0.0000 0.4714
vn 0.7730 0.0000 0.6344
vn 0.6344 0.0000 0.7730
vn 0.4714 0.0000 0.8819
vn 0.2903 0.0000 0.9569
vn 0.0980 0.0000 0.9952
vn -0.0980 0.0000 0.9952
vn -0.2903 0.0000 0.9569
vn -0.4714 0.0000 0.8819
vn -0.6344 0.0000 0.7730
vn -0.7730 0.0000 0.6344
vn -0.8819 0.0000 0.4714
vn -0.9569 0.0000 0.2903
vn -0.9952 0.0000 0.0980
vn -0.9952 0.0000 -0.0980
vn -0.9569 0.0000 -0.2903
vn -0.8819 0.0000 -0.4714
vn -0.7730 0.0000 -0.6344
vn -0.6344 0.0000 -0.7730
vn -0.4714 0.0000 -0.8819
vn 0.0000 1.0000 -0.0000
vn -0.2903 0.0000 -0.9569
vn -0.0980 0.0000 -0.9952
vn 0.0000 -1.0000 -0.0000
usemtl Material.003
s off
f 1//1 2//1 4//1 3//1
f 3//2 4//2 6//2 5//2
f 5//3 6//3 8//3 7//3
f 7//4 8//4 10//4 9//4
f 9//5 10//5 12//5 11//5
f 11//6 12//6 14//6 13//6
f 13//7 14//7 16//7 15//7
f 15//8 16//8 18//8 17//8
f 17//9 18//9 20//9 19//9
f 19//10 20//10 22//10 21//10
f 21//11 22//11 24//11 23//11
f 23//12 24//12 26//12 25//12
f 25//13 26//13 28//13 27//13
f 27//14 28//14 30//14 29//14
f 29//15 30//15 32//15 31//15
f 31//16 32//16 34//16 33//16
f 33//17 34//17 36//17 35//17
f 35//18 36//18 38//18 37//18
f 37//19 38//19 40//19 39//19
f 39//20 40//20 42//20 41//20
f 41//21 42//21 44//21 43//21
f 43//22 44//22 46//22 45//22
f 45//23 46//23 48//23 47//23
f 47//24 48//24 50//24 49//24
f 49//25 50//25 52//25 51//25
f 51//26 52//26 54//26 53//26
f 53//27 54//27 56//27 55//27
f 55//28 56//28 58//28 57//28
f 57//29 58//29 60//29 59//29
f 59//30 60//30 62//30 61//30
f 4//31 2//31 64//31 62//31 60//31 58//31 56//31 54//31 52//31 50//31 48//31 46//31 44//31 42//31 40//31 38//31 36//31 34//31 32//31 30//31 28//31 26//31 24//31 22//31 20//31 18//31 16//31 14//31 12//31 10//31 8//31 6//31
f 61//32 62//32 64//32 63//32
f 63//33 64//33 2//33 1//33
f 1//34 3//34 5//34 7//34 9//34 11//34 13//34 15//34 17//34 19//34 21//34 23//34 25//34 27//34 29//34 31//34 33//34 35//34 37//34 39//34 41//34 43//34 45//34 47//34 49//34 51//34 53//34 55//34 57//34 59//34 61//34 63//34
o Cone
v 0.110463 0.897230 -1.523116
v 0.482236 0.897230 -1.486499
v 0.839722 0.897230 -1.378057
v 1.169183 0.897230 -1.201957
v 1.457958 0.897230 -0.964965
v 1.694950 0.897230 -0.676190
v 1.871050 0.897230 -0.346729
v 1.979492 0.897230 0.010757
v 2.016109 0.897230 0.382530
v 1.979492 0.897230 0.754303
v 1.871050 0.897230 1.111789
v 1.694950 0.897230 1.441250
v 1.457958 0.897230 1.730025
v 1.169183 0.897230 1.967016
v 0.839722 0.897230 2.143117
v 0.482236 0.897230 2.251559
v 0.110463 0.897230 2.288175
v -0.261311 0.897230 2.251559
v -0.618797 0.897230 2.143116
v -0.948258 0.897230 1.967016
v -1.237032 0.897230 1.730024
v -1.474024 0.897230 1.441249
v -1.650124 0.897230 1.111787
v 0.110463 4.708520 0.382530
v -1.758566 0.897230 0.754301
v -1.795182 0.897230 0.382528
v -1.758565 0.897230 0.010755
v -1.650123 0.897230 -0.346731
v -1.474022 0.897230 -0.676192
v -1.237030 0.897230 -0.964967
v -0.948255 0.897230 -1.201958
v -0.618793 0.897230 -1.378058
v -0.261307 0.897230 -1.486500
vn 0.0878 0.4455 -0.8910
vn 0.2599 0.4455 -0.8567
vn 0.4220 0.4455 -0.7896
vn 0.5680 0.4455 -0.6921
vn 0.6921 0.4455 -0.5680
vn 0.7896 0.4455 -0.4220
vn 0.8567 0.4455 -0.2599
vn 0.8910 0.4455 -0.0878
vn 0.8910 0.4455 0.0878
vn 0.8567 0.4455 0.2599
vn 0.7896 0.4455 0.4220
vn 0.6921 0.4455 0.5680
vn 0.5680 0.4455 0.6921
vn 0.4220 0.4455 0.7896
vn 0.2599 0.4455 0.8567
vn 0.0878 0.4455 0.8910
vn -0.0878 0.4455 0.8910
vn -0.2599 0.4455 0.8567
vn -0.4220 0.4455 0.7896
vn -0.5680 0.4455 0.6921
vn -0.6921 0.4455 0.5680
vn -0.7896 0.4455 0.4220
vn -0.8567 0.4455 0.2599
vn -0.8910 0.4455 0.0878
vn -0.8910 0.4455 -0.0878
vn -0.8567 0.4455 -0.2599
vn -0.7896 0.4455 -0.4220
vn -0.6921 0.4455 -0.5680
vn -0.5680 0.4455 -0.6921
vn -0.4220 0.4455 -0.7896
vn -0.2599 0.4455 -0.8567
vn -0.0878 0.4455 -0.8910
vn 0.0000 -1.0000 0.0000
usemtl Material
s off
f 65//35 88//35 66//35
f 66//36 88//36 67//36
f 67//37 88//37 68//37
f 68//38 88//38 69//38
f 69//39 88//39 70//39
f 70//40 88//40 71//40
f 71//41 88//41 72//41
f 72//42 88//42 73//42
f 73//43 88//43 74//43
f 74//44 88//44 75//44
f 75//45 88//45 76//45
f 76//46 88//46 77//46
f 77//47 88//47 78//47
f 78//48 88//48 79//48
f 79//49 88//49 80//49
f 80//50 88//50 81//50
f 81//51 88//51 82//51
f 82//52 88//52 83//52
f 83//53 88//53 84//53
f 84//54 88//54 85//54
f 85//55 88//55 86//55
f 86//56 88//56 87//56
f 87//57 88//57 89//57
f 89//58 88//58 90//58
f 90//59 88//59 91//59
f 91//60 88//60 92//60
f 92//61 88//61 93//61
f 93//62 88//62 94//62
f 94//63 88//63 95//63
f 95//64 88//64 96//64
f 96//65 88//65 97//65
f 97//66 88//66 65//66
f 65//67 66//67 67//67 68//67 69//67 70//67 71//67 72//67 73//67 74//67 75//67 76//67 77//67 78//67 79//67 80//67 81//67 82//67 83//67 84//67 85//67 86//67 87//67 89//67 90//67 91//67 92//67 93//67 94//67 95//67 96//67 97//67
o Cone.001_Cone.002
v 0.110463 2.816968 -1.103404
v 0.400354 2.816968 -1.074852
v 0.679105 2.816968 -0.990294
v 0.936004 2.816968 -0.852979
v 1.161177 2.816968 -0.668184
v 1.345972 2.816968 -0.443011
v 1.483287 2.816968 -0.186112
v 1.567845 2.816968 0.092639
v 1.596397 2.816968 0.382530
v 1.567845 2.816968 0.672421
v 1.483287 2.816968 0.951172
v 1.345972 2.816968 1.208070
v 1.161177 2.816968 1.433243
v 0.936004 2.816968 1.618038
v 0.679105 2.816968 1.755353
v 0.400354 2.816968 1.839911
v 0.110463 2.816968 1.868463
v -0.179429 2.816968 1.839911
v -0.458180 2.816968 1.755353
v -0.715078 2.816968 1.618038
v -0.940251 2.816968 1.433243
v -1.125046 2.816968 1.208069
v -1.262361 2.816968 0.951171
v 0.110463 5.788835 0.382530
v -1.346919 2.816968 0.672420
v -1.375470 2.816968 0.382528
v -1.346918 2.816968 0.092637
v -1.262360 2.816968 -0.186114
v -1.125044 2.816968 -0.443012
v -0.940249 2.816968 -0.668185
v -0.715075 2.816968 -0.852980
v -0.458177 2.816968 -0.990295
v -0.179426 2.816968 -1.074852
vn 0.0878 0.4455 -0.8910
vn 0.2599 0.4455 -0.8567
vn 0.4220 0.4455 -0.7896
vn 0.5680 0.4455 -0.6921
vn 0.6921 0.4455 -0.5680
vn 0.7896 0.4455 -0.4220
vn 0.8567 0.4455 -0.2599
vn 0.8910 0.4455 -0.0878
vn 0.8910 0.4455 0.0878
vn 0.8567 0.4455 0.2599
vn 0.7896 0.4455 0.4220
vn 0.6921 0.4455 0.5680
vn 0.5680 0.4455 0.6921
vn 0.4220 0.4455 0.7896
vn 0.2599 0.4455 0.8567
vn 0.0878 0.4455 0.8910
vn -0.0878 0.4455 0.8910
vn -0.2599 0.4455 0.8567
vn -0.4220 0.4455 0.7896
vn -0.5680 0.4455 0.6921
vn -0.6921 0.4455 0.5680
vn -0.7896 0.4455 0.4220
vn -0.8567 0.4455 0.2599
vn -0.8910 0.4455 0.0878
vn -0.8910 0.4455 -0.0878
vn -0.8567 0.4455 -0.2599
vn -0.7896 0.4455 -0.4220
vn -0.6921 0.4455 -0.5680
vn -0.5680 0.4455 -0.6921
vn -0.4220 0.4455 -0.7896
vn -0.2599 0.4455 -0.8567
vn -0.0878 0.4455 -0.8910
vn 0.0000 -1.0000 0.0000
usemtl Material.001
s off
f 98//68 121//68 99//68
f 99//69 121//69 100//69
f 100//70 121//70 101//70
f 101//71 121//71 102//71
f 102//72 121//72 103//72
f 103//73 121//73 104//73
f 104//74 121//74 105//74
f 105//75 121//75 106//75
f 106//76 121//76 107//76
f 107//77 121//77 108//77
f 108//78 121//78 109//78
f 109//79 121//79 110//79
f 110//80 121//80 111//80
f 111//81 121//81 112//81
f 112//82 121//82 113//82
f 113//83 121//83 114//83
f 114//84 121//84 115//84
f 115//85 121//85 116//85
f 116//86 121//86 117//86
f 117//87 121//87 118//87
f 118//88 121//88 119//88
f 119//89 121//89 120//89
f 120//90 121//90 122//90
f 122//91 121//91 123//91
f 123//92 121//92 124//92
f 124//93 121//93 125//93
f 125//94 121//94 126//94
f 126//95 121//95 127//95
f 127//96 121//96 128//96
f 128//97 121//97 129//97
f 129//98 121//98 130//98
f 130//99 121//99 98//99
f 98//100 99//100 100//100 101//100 102//100 103//100 104//100 105//100 106//100 107//100 108//100 109//100 110//100 111//100 112//100 113//100 114//100 115//100 116//100 117//100 118//100 119//100 120//100 122//100 123//100 124//100 125//100 126//100 127//100 128//100 129//100 130//100
o Cone.002_Cone.003
v 0.110463 4.544595 -0.547436
v 0.291890 4.544595 -0.529567
v 0.466346 4.544595 -0.476646
v 0.627124 4.544595 -0.390708
v 0.768048 4.544595 -0.275055
v 0.883701 4.544595 -0.134131
v 0.969639 4.544595 0.026647
v 1.022560 4.544595 0.201103
v 1.040429 4.544595 0.382530
v 1.022560 4.544595 0.563957
v 0.969639 4.544595 0.738412
v 0.883701 4.544595 0.899191
v 0.768048 4.544595 1.040115
v 0.627124 4.544595 1.155768
v 0.466345 4.544595 1.241706
v 0.291890 4.544595 1.294626
v 0.110463 4.544595 1.312495
v -0.070964 4.544595 1.294626
v -0.245420 4.544595 1.241706
v -0.406198 4.544595 1.155767
v -0.547122 4.544595 1.040114
v -0.662775 4.544595 0.899190
v -0.748713 4.544595 0.738411
v 0.110463 6.404526 0.382530
v -0.801633 4.544595 0.563956
v -0.819502 4.544595 0.382529
v -0.801633 4.544595 0.201102
v -0.748712 4.544595 0.026646
v -0.662774 4.544595 -0.134132
v -0.547121 4.544595 -0.275056
v -0.406197 4.544595 -0.390709
v -0.245418 4.544595 -0.476647
v -0.070963 4.544595 -0.529567
vn 0.0878 0.4455 -0.8910
vn 0.2599 0.4455 -0.8567
vn 0.4220 0.4455 -0.7896
vn 0.5680 0.4455 -0.6921
vn 0.6921 0.4455 -0.5680
vn 0.7896 0.4455 -0.4220
vn 0.8567 0.4455 -0.2599
vn 0.8910 0.4455 -0.0878
vn 0.8910 0.4455 0.0878
vn 0.8567 0.4455 0.2599
vn 0.7896 0.4455 0.4220
vn 0.6921 0.4455 0.5680
vn 0.5680 0.4455 0.6921
vn 0.4220 0.4455 0.7896
vn 0.2599 0.4455 0.8567
vn 0.0878 0.4455 0.8910
vn -0.0878 0.4455 0.8910
vn -0.2599 0.4455 0.8567
vn -0.4220 0.4455 0.7896
vn -0.5680 0.4455 0.6921
vn -0.6921 0.4455 0.5680
vn -0.7896 0.4455 0.4220
vn -0.8567 0.4455 0.2599
vn -0.8910 0.4455 0.0878
vn -0.8910 0.4455 -0.0878
vn -0.8567 0.4455 -0.2599
vn -0.7896 0.4455 -0.4220
vn -0.6921 0.4455 -0.5680
vn -0.5680 0.4455 -0.6921
vn -0.4220 0.4455 -0.7896
vn -0.2599 0.4455 -0.8567
vn -0.0878 0.4455 -0.8910
vn 0.0000 -1.0000 -0.0000
usemtl Material.002
s off
f 131//101 154//101 132//101
f 132//102 154//102 133//102
f 133//103 154//103 134//103
f 134//104 154//104 135//104
f 135//105 154//105 136//105
f 136//106 154//106 137//106
f 137//107 154//107 138//107
f 138//108 154//108 139//108
f 139//109 154//109 140//109
f 140//110 154//110 141//110
f 141//111 154//111 142//111
f 142//112 154//112 143//112
f 143//113 154//113 144//113
f 144//114 154//114 145//114
f 145//115 154//115 146//115
f 146//116 154//116 147//116
f 147//117 154//117 148//117
f 148//118 154//118 149//118
f 149//119 154//119 150//119
f 150//120 154//120 151//120
f 151//121 154//121 152//121
f 152//122 154//122 153//122
f 153//123 154//123 155//123
f 155//124 154//124 156//124
f 156//125 154//125 157//125
f 157//126 154//126 158//126
f 158//127 154//127 159//127
f 159//128 154//128 160//128
f 160//129 154//129 161//129
f 161//130 154//130 162//130
f 162//131 154//131 163//131
f 163//132 154//132 131//132
f 131//133 132//133 133//133 134//133 135//133 136//133 137//133 138//133 139//133 140//133 141//133 142//133 143//133 144//133 145//133 146//133 147//133 148//133 149//133 150//133 151//133 152//133 153//133 155//133 156//133 157//133 158//133 159//133 160//133 161//133 162//133 163//133
